<svg xmlns="http://www.w3.org/2000/svg" viewBox="0 0 500 500" xmlns:bx="https://boxy-svg.com">
  <defs>
    <pattern id="pattern-1" viewBox="0 0 80.1 124" patternUnits="userSpaceOnUse" preserveAspectRatio="none" width="100" height="100" bx:pinned="true">
      <path d="M 39.931 71.371 L 80.1 52.539 L 80.1 124 L 39.997 124 L 39.931 71.371 Z" style="fill: rgb(151, 51, 255);"></path>
      <path d="M 39.935 78.308 L 80.028 78.308 L 80.1 0 L 39.935 20.649 L 39.935 78.308 Z" style="transform-box: fill-box; transform-origin: 50% 50%; fill: rgb(176, 92, 255);" transform="matrix(-1, 0, 0, -1, 0.000001, 0.000004)"></path>
      <path d="M 0 105.168 L 40.169 124 L 40.169 52.539 L 0.066 52.539 L 0 105.168 Z" style="transform-box: fill-box; transform-origin: 50% 50%; fill: rgb(173, 96, 255);" transform="matrix(-1, 0, 0, -1, 0.000001, -0.000001)"></path>
      <path d="M -0.001 0 L 40.092 0 L 40.164 78.202 L -0.001 57.581 L -0.001 0 Z" style="transform-origin: 20.082px 39.102px; fill: rgb(181, 113, 254);"></path>
    </pattern>
    <pattern id="pattern-1-0" href="#pattern-1" patternTransform="matrix(0.996165, -0.002264, 0.002563, 1.127725, 199.992, 193.997)"></pattern>
  </defs>
  <path d="M 248.119 195.56 C 248.826 194.612 249.494 194.102 250 194.102 C 250.506 194.102 251.026 194.504 251.645 195.258 L 289.224 247.709 C 289.803 248.586 290.048 249.325 290.048 250 C 290.048 250.675 289.767 251.44 289.194 252.333 L 251.881 304.44 C 251.174 305.388 250.506 305.898 250 305.898 C 249.494 305.898 248.974 305.496 248.355 304.742 L 210.776 252.291 C 210.197 251.414 209.952 250.675 209.952 250 C 209.952 249.325 210.233 248.56 210.806 247.667 L 248.119 195.56" style="fill: url(#pattern-1-0); paint-order: fill; stroke: rgb(255, 255, 255); stroke-width: 5px;"></path>
  <path style="fill: rgb(151, 51, 255); stroke: rgb(255, 255, 255); stroke-width: 5px;" d="M 181.534 392.312 L 245.962 491.698 C 245.962 491.698 248.475 493.34 249.829 493.338 C 251.153 493.336 253.541 491.72 253.541 491.72 L 405.095 261.454 C 405.095 261.454 407.067 255.439 406.809 252.368 C 406.416 247.694 401.927 239.169 401.927 239.169 L 362.887 181.052 L 274.269 181.052 L 317.638 254.504 L 278.917 324.143 L 322.256 324.939 L 276.946 392.328 L 181.534 392.312 Z"></path>
  <path style="stroke: rgb(255, 255, 255); stroke-width: 5px; fill: rgb(176, 92, 255); transform-origin: 208.689px 166.838px;" d="M 96.04 221.955 L 160.468 321.341 C 160.468 321.341 162.981 322.983 164.335 322.981 C 165.659 322.979 168.047 321.363 168.047 321.363 L 319.601 91.097 C 319.601 91.097 321.573 85.082 321.315 82.011 C 320.922 77.337 316.433 68.812 316.433 68.812 L 277.393 10.695 L 188.775 10.695 L 232.144 84.147 L 193.423 153.786 L 236.762 154.582 L 191.452 221.971 L 96.04 221.955 Z" transform="matrix(-1, 0, 0, -1, 0.000006, 0.000015)"></path>
</svg>